<svg xmlns="http://www.w3.org/2000/svg" version="1.1" xmlns:xlink="http://www.w3.org/1999/xlink" xmlns:svgjs="http://svgjs.dev/svgjs" width="1000" height="623" viewBox="0 0 1000 623"><g transform="matrix(1,0,0,1,-0.6060606060606233,0.2522267206477409)"><svg viewBox="0 0 396 247" data-background-color="#ffffff" preserveAspectRatio="xMidYMid meet" height="623" width="1000" xmlns="http://www.w3.org/2000/svg" xmlns:xlink="http://www.w3.org/1999/xlink"><g id="tight-bounds" transform="matrix(1,0,0,1,0.2400000000000091,-0.09999999999999432)"><svg viewBox="0 0 395.52 247.2" height="247.2" width="395.52"><g><svg></svg></g><g><svg viewBox="0 0 395.52 247.2" height="247.2" width="395.52"><g transform="matrix(1,0,0,1,75.54432000000001,71.80049254302104)"><svg viewBox="0 0 244.43135999999996 103.59901491395792" height="103.59901491395792" width="244.43135999999996"><g><svg viewBox="0 0 244.43135999999996 103.59901491395792" height="103.59901491395792" width="244.43135999999996"><g><svg viewBox="0 0 244.43135999999996 103.59901491395792" height="103.59901491395792" width="244.43135999999996"><g><svg viewBox="0 0 244.43135999999996 103.59901491395792" height="103.59901491395792" width="244.43135999999996"><g id="textblocktransform"><svg viewBox="0 0 244.43135999999996 103.59901491395792" height="103.59901491395792" width="244.43135999999996" id="textblock"><g><svg viewBox="0 0 244.43135999999996 103.59901491395792" height="103.59901491395792" width="244.43135999999996"><g transform="matrix(1,0,0,1,0,0)"><svg width="244.43135999999996" viewBox="3 -33 78.44999694824219 33.25" height="103.59901491395792" data-palette-color="#0063db"><path d="M13.75 0L3 0 3-1 6.95-2.5 8-30.4 3.7-32 3.7-33 12.35-33 24.1-5.6 36-33 44.3-33 44.3-32 40.1-30.45 40.95-2.5 44.45-1 44.45 0 33.45 0 33.45-1 37.15-2.45 36.6-28.35 24.2 0.25 22.45 0.25 10.3-28.25 9.7-2.45 13.75-1 13.75 0ZM63.75 0L50.7 0 50.7-1 54.7-2.5 54.7-30.5 50.7-32 50.7-33 64.1-33Q69.65-33 73.52-31.05 77.4-29.1 79.42-25.7 81.45-22.3 81.45-18L81.45-18Q81.45-12.65 79.2-8.6 76.95-4.55 72.95-2.27 68.95 0 63.75 0L63.75 0ZM63.6-30.65L63.6-30.65 58.6-30.65 58.6-2.35 64.15-2.35Q68.15-2.35 71.12-4.13 74.1-5.9 75.72-9.08 77.35-12.25 77.35-16.45L77.35-16.45Q77.35-20.75 75.75-23.95 74.15-27.15 71.07-28.9 68-30.65 63.6-30.65Z" opacity="1" transform="matrix(1,0,0,1,0,0)" fill="#0063db" class="undefined-text-0" data-fill-palette-color="primary" id="text-0"></path></svg></g></svg></g></svg></g></svg></g></svg></g></svg></g></svg></g><g><path d="M0 123.6c0-68.262 55.338-123.6 123.6-123.6 44.824 0 84.074 23.86 105.744 59.572l-5.505 0c-21.133-33.016-58.13-54.901-100.239-54.901-65.682 0-118.929 53.246-118.929 118.929 0 65.682 53.246 118.929 118.929 118.929 42.109 0 79.107-21.885 100.239-54.901l5.505 0c-21.67 35.712-60.921 59.572-105.744 59.572-68.262 0-123.6-55.338-123.6-123.6z" fill="#0063db" stroke="transparent" data-fill-palette-color="tertiary"></path></g></svg></g><defs></defs></svg><rect width="395.52" height="247.2" fill="none" stroke="none" visibility="hidden"></rect></g></svg></g></svg>